<?xml version="1.0" encoding="UTF-8"?>
<svg xmlns="http://www.w3.org/2000/svg" viewBox="0 0 185 188.07">
  <path fill="#007bff" d="M58.61,132.91s4.23-26.71,40.95-33.93c36.72-7.22,52.19-16.71,52.19-16.71,0,0-16.17,93.75-70.24,104.28C24.28,197.68.44,144.15.44,144.15c0,0,24.14,36.62,62.5,27.54,38.37-9.08,52.96-53.58,52.96-53.58,0,0-35.12-2.32-57.29,14.8Z"/>
  <path fill="#007bff" d="M176.97,0s-23.78,50.87-106.85,72.53c-79.65,20.77-52.25,92.7-7.93,93.38-.19.06-.39.12-.58.15-3.62.87-7.26,1.31-10.82,1.31-7.41,0-14.11-1.88-19.95-4.63C8.54,152.23-3.77,127.63,1.03,103.44c1.04-5.25,2.73-10.04,4.94-14.01C32.31,42.11,120.72,51.56,176.97,0Z"/>
  <path fill="#ffc107" d="M180.21,2.07s-26.82,46.21-77.77,64.36c0,0,77.15-1.13,77.77-64.36Z"/>
</svg>
