<?xml version="1.0" encoding="UTF-8"?>
<svg id="Layer_2" data-name="Layer 2" xmlns="http://www.w3.org/2000/svg" viewBox="0 0 754.33 188.07">
  <defs>
    <style>
      .cls-1 {
        fill: #ffc107;
      }

      .cls-2 {
        fill: #fff;
      }

      .cls-3 {
        fill: #007bff;
      }
    </style>
  </defs>
  <g id="Layer_1-2" data-name="Layer 1">
    <g>
      <g>
        <path class="cls-2" d="M229.51,87.9c3.59-3.54,7.87-6.28,12.82-8.23,4.95-1.94,10.38-2.92,16.27-2.92,6.37,0,12.2,1.15,17.51,3.45,5.31,2.3,10.26,5.87,14.86,10.7l18.22-16.98c-6.01-6.96-13.41-12.26-22.2-15.92-8.78-3.65-18.66-5.48-29.62-5.48-9.9,0-18.98,1.56-27.24,4.69-8.25,3.12-15.45,7.57-21.58,13.35-6.13,5.78-10.88,12.56-14.24,20.34-3.36,7.78-5.04,16.33-5.04,25.65s1.68,17.86,5.04,25.64c3.36,7.78,8.05,14.57,14.06,20.34,6.01,5.78,13.15,10.23,21.4,13.35,8.25,3.13,17.27,4.69,27.06,4.69,8.84,0,17.69-1.33,26.53-3.98,8.84-2.65,16.68-6.57,23.52-11.76v-50.23s-26.17,0-26.17,0v36.32c-1.9,1-3.81,1.9-5.75,2.58-5.37,1.89-10.88,2.83-16.54,2.83s-11.29-1-16.18-3.01c-4.89-2-9.14-4.77-12.73-8.31-3.6-3.54-6.37-7.75-8.31-12.65-1.95-4.89-2.92-10.17-2.92-15.82s.97-11.26,2.92-16.1c1.94-4.83,4.71-9.02,8.31-12.55Z"/>
        <polygon class="cls-2" points="365.77 54.65 336.95 54.65 336.95 178.45 427.5 178.45 427.5 155.1 365.77 155.1 365.77 54.65"/>
        <rect class="cls-2" x="447.31" y="54.65" width="28.83" height="123.8"/>
        <path class="cls-2" d="M600.64,62.35c-10.26-5.13-22.11-7.69-35.55-7.69h-56.24s0,123.8,0,123.8h56.24c13.44,0,25.29-2.57,35.55-7.69,10.26-5.13,18.27-12.32,24.05-21.58,5.78-9.26,8.67-20.13,8.67-32.63s-2.89-23.38-8.67-32.63c-5.78-9.26-13.79-16.45-24.05-21.58ZM599.31,136.98c-3.36,5.83-8.08,10.31-14.15,13.44-6.07,3.12-13.24,4.68-21.49,4.68h-26v-77.1h26c8.25,0,15.42,1.56,21.49,4.68,6.07,3.13,10.79,7.58,14.15,13.35,3.36,5.78,5.04,12.62,5.04,20.52s-1.68,14.59-5.04,20.43Z"/>
        <polygon class="cls-2" points="686.95 155.46 686.95 126.81 744.42 126.81 744.42 104.35 686.95 104.35 686.95 77.65 752.03 77.65 752.03 54.65 658.47 54.65 658.47 178.45 754.33 178.45 754.33 155.46 686.95 155.46"/>
      </g>
      <g>
        <path class="cls-3" d="M58.61,132.91s4.23-26.71,40.95-33.93c36.72-7.22,52.19-16.71,52.19-16.71,0,0-16.17,93.75-70.24,104.28C24.28,197.68.44,144.15.44,144.15c0,0,24.14,36.62,62.5,27.54,38.37-9.08,52.96-53.58,52.96-53.58,0,0-35.12-2.32-57.29,14.8Z"/>
        <path class="cls-3" d="M176.97,0s-23.78,50.87-106.85,72.53c-79.65,20.77-52.25,92.7-7.93,93.38-.19.06-.39.12-.58.15-3.62.87-7.26,1.31-10.82,1.31-7.41,0-14.11-1.88-19.95-4.63C8.54,152.23-3.77,127.63,1.03,103.44c1.04-5.25,2.73-10.04,4.94-14.01C32.31,42.11,120.72,51.56,176.97,0Z"/>
        <path class="cls-1" d="M180.21,2.07s-26.82,46.21-77.77,64.36c0,0,77.15-1.13,77.77-64.36Z"/>
      </g>
    </g>
  </g>
</svg>